<?xml version="1.0" encoding="UTF-8"?>
<svg version="1.1" xmlns="http://www.w3.org/2000/svg" width="332" height="282">
<path d="M0 0 C0.79410658 -0.00085442 1.58821316 -0.00170885 2.40638357 -0.00258917 C5.05183463 -0.00422866 7.69722146 0.00125222 10.34266663 0.00672913 C12.24515278 0.00701135 14.14763904 0.00685257 16.05012512 0.00628662 C21.20451447 0.00600004 26.35888049 0.01187434 31.51326442 0.01886058 C36.90379006 0.02511723 42.29431626 0.02569975 47.68484497 0.02688599 C57.88795718 0.02999248 68.09105866 0.0381967 78.29416615 0.04823548 C89.912002 0.05941777 101.52983836 0.0649124 113.14767826 0.06993091 C137.04218879 0.08037987 160.9366898 0.09796613 184.83119202 0.12025452 C184.02985124 4.13477891 182.69040049 5.40167921 179.39369202 7.87025452 C178.59060608 8.48384827 177.78752014 9.09744202 176.96009827 9.72962952 C174.83119202 11.12025452 174.83119202 11.12025452 172.83119202 11.12025452 C172.83119202 11.78025452 172.83119202 12.44025452 172.83119202 13.12025452 C171.03041077 14.74916077 171.03041077 14.74916077 168.51869202 16.68275452 C167.60345764 17.39689514 166.68822327 18.11103577 165.74525452 18.84681702 C164.78361389 19.59705139 163.82197327 20.34728577 162.83119202 21.12025452 C161.014069 22.59373822 159.20154828 24.0729158 157.39369202 25.55775452 C156.59060608 26.21646545 155.78752014 26.87517639 154.96009827 27.55384827 C154.51424377 27.91978088 154.06838928 28.2857135 153.60902405 28.66273499 C149.35270818 32.15218922 145.09132436 35.63546156 140.83119202 39.12025452 C141.41842041 39.12612076 142.0056488 39.131987 142.610672 39.13803101 C148.77644068 39.20244848 154.9417105 39.28698657 161.10707092 39.38270569 C163.40159995 39.4157611 165.69620651 39.44385197 167.99085999 39.46669006 C171.30776209 39.50059489 174.62396593 39.55292631 177.94056702 39.60853577 C179.45538666 39.61812065 179.45538666 39.61812065 181.00080872 39.62789917 C198.2178521 39.9756119 213.04254386 46.26749675 225.20228577 58.35072327 C235.41337174 69.10801889 241.90932498 81.0630929 242.83119202 96.12025452 C242.91046936 97.3326178 242.91046936 97.3326178 242.99134827 98.56947327 C243.55185921 115.26295147 237.20408301 128.22031469 228.83119202 142.12025452 C229.36228577 142.94267639 229.89337952 143.76509827 230.44056702 144.61244202 C239.75230224 159.23384753 243.23702055 172.71473655 243.58631897 190.07264709 C243.6246387 191.48199789 243.68627082 192.89090301 243.77088928 194.29823303 C244.13636359 200.46552253 244.43876427 205.96281092 240.5907135 211.12709045 C237.79329293 213.69658732 234.92827098 215.92497898 231.83119202 218.12025452 C230.46859358 219.23923271 229.112002 220.36561587 227.76478577 221.50306702 C226.60280498 222.42142725 225.43756746 223.33568591 224.26869202 224.24525452 C223.66734436 224.72478577 223.0659967 225.20431702 222.44642639 225.69837952 C218.08109157 229.12025452 218.08109157 229.12025452 215.83119202 229.12025452 C215.83119202 229.78025452 215.83119202 230.44025452 215.83119202 231.12025452 C215.17119202 231.12025452 214.51119202 231.12025452 213.83119202 231.12025452 C213.83119202 231.78025452 213.83119202 232.44025452 213.83119202 233.12025452 C212.18119202 233.78025452 210.53119202 234.44025452 208.83119202 235.12025452 C208.83119202 235.78025452 208.83119202 236.44025452 208.83119202 237.12025452 C206.9064602 238.74330423 204.97837787 240.25226766 202.95619202 241.74525452 C201.76675312 242.64024215 200.57795892 243.53608718 199.38978577 244.43275452 C198.7927887 244.88134827 198.19579163 245.32994202 197.58070374 245.79212952 C193.59735957 248.81604694 189.72061419 251.97710974 185.83119202 255.12025452 C185.17119202 254.79025452 184.51119202 254.46025452 183.83119202 254.12025452 C183.82572357 252.65566299 183.82572357 252.65566299 183.82014465 251.16148376 C183.78317118 241.95084818 183.72537286 232.7405462 183.64728928 223.53016472 C183.60781384 218.79520678 183.5756257 214.06043484 183.56019592 209.32533264 C183.54502975 204.7539409 183.51058501 200.18306047 183.462883 195.61189651 C183.44806877 193.86968052 183.44015098 192.12739153 183.43930817 190.38511276 C183.43693682 187.94064347 183.40984563 185.49758533 183.37709045 183.05335999 C183.38212082 182.3362233 183.38715118 181.61908661 183.39233398 180.88021851 C183.28843982 175.8548316 181.94085988 173.01886289 178.83119202 169.12025452 C177.09467969 167.46778905 177.09467969 167.46778905 175.26869202 166.30775452 C174.40050842 165.71027405 174.40050842 165.71027405 173.51478577 165.10072327 C169.67954073 162.86720469 166.30012479 162.99456753 161.96083069 162.99327087 C161.25801311 162.99171088 160.55519552 162.99015089 159.83108044 162.98854363 C157.47041937 162.98454737 155.10982234 162.98771798 152.74916077 162.99085999 C151.0590257 162.98950534 149.36889093 162.98772504 147.67875671 162.98554993 C143.08383081 162.98098317 138.48892731 162.98276206 133.89400101 162.98592901 C129.09075611 162.98845651 124.28751316 162.98611398 119.48426819 162.98454285 C111.41728877 162.9827223 103.35031849 162.98512447 95.28334045 162.98988342 C85.94991034 162.99532582 76.61650206 162.99356309 67.28307247 162.98805702 C59.27708467 162.98352264 51.27110345 162.98287694 43.26511478 162.98549569 C38.48020126 162.98705667 33.695298 162.9872571 28.91038513 162.9839592 C24.41247406 162.98107579 19.91459121 162.98306487 15.4166832 162.98885345 C13.76345746 162.99017852 12.11022935 162.98979121 10.45700455 162.98759079 C8.20515513 162.98486938 5.95339691 162.98827263 3.70155334 162.99327087 C2.43982803 162.9936479 1.17810272 162.99402493 -0.12185669 162.99441338 C-3.21322932 162.98127801 -3.21322932 162.98127801 -6.16880798 164.12025452 C-6.16880798 164.78025452 -6.16880798 165.44025452 -6.16880798 166.12025452 C-8.06724548 167.84681702 -8.06724548 167.84681702 -10.54380798 169.74525452 C-11.35591736 170.37689514 -12.16802673 171.00853577 -13.00474548 171.65931702 C-15.16880798 173.12025452 -15.16880798 173.12025452 -17.16880798 173.12025452 C-17.16880798 173.78025452 -17.16880798 174.44025452 -17.16880798 175.12025452 C-19.11206263 176.78326166 -21.06652477 178.33276519 -23.10630798 179.87025452 C-24.38770406 180.8553528 -25.66758246 181.84242755 -26.94615173 182.83119202 C-27.97071472 183.62348206 -27.97071472 183.62348206 -29.01597595 184.43177795 C-32.78617188 187.38876084 -36.47661377 190.44182163 -40.16880798 193.49525452 C-41.22636292 194.36875549 -41.22636292 194.36875549 -42.30528259 195.25990295 C-42.98212097 195.81967834 -43.65895935 196.37945374 -44.35630798 196.95619202 C-45.32503845 197.75621643 -45.32503845 197.75621643 -46.31333923 198.57240295 C-47.52809644 199.58576621 -48.73426133 200.60954093 -49.93052673 201.64466858 C-53.96543044 205.12025452 -53.96543044 205.12025452 -56.16880798 205.12025452 C-56.16880798 205.78025452 -56.16880798 206.44025452 -56.16880798 207.12025452 C-57.81880798 207.45025452 -59.46880798 207.78025452 -61.16880798 208.12025452 C-61.23907094 188.41334645 -61.29188052 168.70646401 -61.3242445 148.99945641 C-61.33967497 139.84794792 -61.36069095 130.69651754 -61.39512634 121.5450592 C-61.4251462 113.56321743 -61.4444107 105.58143225 -61.45107347 97.59953558 C-61.45496453 93.37810289 -61.4640282 89.15683203 -61.48599815 84.93545151 C-61.50656283 80.95130251 -61.51260204 76.96737995 -61.50813103 72.98318291 C-61.50894739 71.5312991 -61.51479295 70.07940665 -61.52642441 68.6275692 C-61.66986549 49.77737857 -57.46312472 34.46550442 -45.64927673 19.59681702 C-44.16880798 18.12025452 -44.16880798 18.12025452 -42.16880798 18.12025452 C-42.16880798 17.46025452 -42.16880798 16.80025452 -42.16880798 16.12025452 C-41.50880798 16.12025452 -40.84880798 16.12025452 -40.16880798 16.12025452 C-40.16880798 15.46025452 -40.16880798 14.80025452 -40.16880798 14.12025452 C-29.1971149 4.10374412 -14.53937916 -0.05797022 0 0 Z M6.39369202 34.05775452 C2.0503701 38.01066548 2.0503701 38.01066548 -0.16880798 39.12025452 C-0.16880798 39.78025452 -0.16880798 40.44025452 -0.16880798 41.12025452 C-0.73470642 41.37677795 -1.30060486 41.63330139 -1.88365173 41.89759827 C-4.43136264 43.26073248 -6.49196937 44.85660523 -8.73130798 46.68275452 C-9.59626892 47.38529358 -10.46122986 48.08783264 -11.35240173 48.81166077 C-12.2818158 49.5734967 -13.21122986 50.33533264 -14.16880798 51.12025452 C-15.19103455 51.95427795 -16.21326111 52.78830139 -17.26646423 53.64759827 C-19.90357862 55.80152524 -22.53752978 57.95920473 -25.16880798 60.12025452 C-23.65199305 63.9337158 -21.42427772 65.79277548 -18.23130798 68.30775452 C-17.24904236 69.09021545 -16.26677673 69.87267639 -15.25474548 70.67884827 C-14.23638611 71.48451233 -13.21802673 72.29017639 -12.16880798 73.12025452 C-10.22824978 74.69983818 -8.29063504 76.28304642 -6.35630798 77.87025452 C-5.00279236 78.97433655 -5.00279236 78.97433655 -3.62193298 80.10072327 C-1.59362184 81.77052718 0.40361393 83.46800277 2.39369202 85.18275452 C4.57317816 87.32766923 4.57317816 87.32766923 6.83119202 87.12025452 C6.83119202 87.78025452 6.83119202 88.44025452 6.83119202 89.12025452 C9.29445913 90.76492191 9.29445913 90.76492191 11.83119202 92.12025452 C12.16119202 88.49025452 12.49119202 84.86025452 12.83119202 81.12025452 C14.26366776 81.13144066 14.26366776 81.13144066 15.7250824 81.14285278 C24.75794303 81.20748052 33.78982257 81.22436878 42.8228817 81.19541264 C47.46625287 81.18203809 52.10837076 81.18504585 56.75160217 81.22645569 C61.23912599 81.26585812 65.72468165 81.26096951 70.21222305 81.22633171 C71.91770679 81.22076493 73.62331935 81.23072695 75.32860947 81.25702095 C86.92615999 81.4613677 86.92615999 81.4613677 96.76087952 75.71156311 C98.14211306 74.20316796 99.50274566 72.67534047 100.83119202 71.12025452 C101.85903775 70.23522521 102.90969591 69.37486814 103.99525452 68.56166077 C105.21341858 67.63160217 105.21341858 67.63160217 106.45619202 66.68275452 C107.29408264 66.04466858 108.13197327 65.40658264 108.99525452 64.74916077 C109.60111389 64.2116217 110.20697327 63.67408264 110.83119202 63.12025452 C110.83119202 62.46025452 110.83119202 61.80025452 110.83119202 61.12025452 C111.49119202 61.12025452 112.15119202 61.12025452 112.83119202 61.12025452 C112.83119202 60.46025452 112.83119202 59.80025452 112.83119202 59.12025452 C113.37259827 58.88306702 113.91400452 58.64587952 114.47181702 58.40150452 C117.46369339 56.77677695 119.94278601 54.77006682 122.58119202 52.62025452 C123.56603577 51.82619202 124.55087952 51.03212952 125.56556702 50.21400452 C126.68705139 49.17759827 126.68705139 49.17759827 127.83119202 48.12025452 C127.83119202 47.46025452 127.83119202 46.80025452 127.83119202 46.12025452 C128.49119202 46.12025452 129.15119202 46.12025452 129.83119202 46.12025452 C129.83119202 45.46025452 129.83119202 44.80025452 129.83119202 44.12025452 C130.82119202 43.79025452 131.81119202 43.46025452 132.83119202 43.12025452 C132.83119202 42.79025452 132.83119202 42.46025452 132.83119202 42.12025452 C93.23119202 41.79025452 53.63119202 41.46025452 12.83119202 41.12025452 C12.33619202 35.67525452 12.33619202 35.67525452 11.83119202 30.12025452 C9.75532162 30.12025452 7.81540118 32.7634305 6.39369202 34.05775452 Z M169.83119202 71.12025452 C169.83119202 74.75025452 169.83119202 78.38025452 169.83119202 82.12025452 C168.85257706 82.11137207 167.8739621 82.10248962 166.86569214 82.09333801 C157.64029256 82.01222877 148.41496538 81.95227792 139.18929005 81.91300583 C134.44631901 81.89213676 129.70363598 81.86383159 124.96083069 81.8184967 C120.38317728 81.7750146 115.80580077 81.75111229 111.22795677 81.74074554 C109.48203358 81.73335841 107.73612543 81.71893294 105.99032021 81.69733429 C103.54347184 81.66826823 101.09776551 81.66429975 98.65077209 81.66615295 C97.93004013 81.65177185 97.20930817 81.63739075 96.46673584 81.62257385 C92.85147362 81.65217382 90.92263992 82.06201553 87.84246826 84.02363586 C85.60043631 85.87657712 85.60043631 85.87657712 85.83119202 88.12025452 C83.83119202 89.12025452 81.83119202 90.12025452 79.83119202 91.12025452 C79.83119202 91.78025452 79.83119202 92.44025452 79.83119202 93.12025452 C79.17119202 93.12025452 78.51119202 93.12025452 77.83119202 93.12025452 C77.83119202 93.78025452 77.83119202 94.44025452 77.83119202 95.12025452 C77.17119202 95.12025452 76.51119202 95.12025452 75.83119202 95.12025452 C75.83119202 95.78025452 75.83119202 96.44025452 75.83119202 97.12025452 C75.23306702 97.40900452 74.63494202 97.69775452 74.01869202 97.99525452 C71.6379141 99.16767477 71.6379141 99.16767477 68.83119202 101.12025452 C68.83119202 101.78025452 68.83119202 102.44025452 68.83119202 103.12025452 C68.25369202 103.38837952 67.67619202 103.65650452 67.08119202 103.93275452 C64.77569159 105.14954641 62.81063009 106.42359331 60.83119202 108.12025452 C60.83119202 108.78025452 60.83119202 109.44025452 60.83119202 110.12025452 C60.25884827 110.37677795 59.68650452 110.63330139 59.09681702 110.89759827 C56.60470419 112.24247985 54.69764121 113.80538569 52.58119202 115.68275452 C51.52158264 116.61281311 51.52158264 116.61281311 50.44056702 117.56166077 C49.64392639 118.33316467 49.64392639 118.33316467 48.83119202 119.12025452 C48.83119202 119.45025452 48.83119202 119.78025452 48.83119202 120.12025452 C88.76119202 120.45025452 128.69119202 120.78025452 169.83119202 121.12025452 C169.83119202 124.75025452 169.83119202 128.38025452 169.83119202 132.12025452 C175.37104528 128.02585009 180.73089314 123.78342154 186.01869202 119.37025452 C193.16115502 113.44438657 200.42421924 107.71090875 207.83119202 102.12025452 C204.27015214 98.46706203 200.55611151 95.08408429 196.64369202 91.80775452 C196.07489319 91.32919006 195.50609436 90.85062561 194.9200592 90.3575592 C189.9559795 86.19530505 184.92247646 82.1259593 179.83119202 78.12025452 C178.9791217 77.44478577 178.12705139 76.76931702 177.24916077 76.07337952 C173.86092945 72.84665222 173.86092945 72.84665222 169.83119202 71.12025452 Z M-2.16880798 123.12025452 C-2.25732327 125.71384773 -2.28406743 128.28065143 -2.26646423 130.87416077 C-2.26504929 131.64960739 -2.26363434 132.42505402 -2.26217651 133.22399902 C-2.25656144 135.71028946 -2.24400645 138.19649112 -2.23130798 140.68275452 C-2.22629492 142.36439384 -2.22173168 144.04603458 -2.21763611 145.72767639 C-2.20658711 149.85857018 -2.18931243 153.98939728 -2.16880798 158.12025452 C-0.51880798 157.46025452 1.13119202 156.80025452 2.83119202 156.12025452 C2.83119202 155.46025452 2.83119202 154.80025452 2.83119202 154.12025452 C3.68390686 153.73160217 3.68390686 153.73160217 4.55384827 153.33509827 C7.05006795 152.00349566 9.07123687 150.46517598 11.26869202 148.68275452 C12.13752014 147.97892639 13.00634827 147.27509827 13.90150452 146.54994202 C16.01394368 144.7980258 18.11200414 143.03545145 20.19837952 141.25306702 C20.7701593 140.76507629 21.34193909 140.27708557 21.93104553 139.77430725 C23.04937496 138.81667291 24.16459968 137.85539758 25.27626038 136.89002991 C27.6733793 134.83190501 29.9906341 133.0264016 32.71791077 131.42103577 C33.41529358 130.99177795 34.11267639 130.56252014 34.83119202 130.12025452 C34.83119202 129.46025452 34.83119202 128.80025452 34.83119202 128.12025452 C35.42931702 127.83150452 36.02744202 127.54275452 36.64369202 127.24525452 C39.02446994 126.07283426 39.02446994 126.07283426 41.83119202 124.12025452 C41.83119202 123.46025452 41.83119202 122.80025452 41.83119202 122.12025452 C35.72564491 122.09560938 29.62012651 122.07742081 23.51454163 122.06532288 C21.43576046 122.06028163 19.35698285 122.05344877 17.2782135 122.04481506 C14.29716616 122.03274029 11.31616552 122.02702428 8.33509827 122.02259827 C7.39968704 122.01743698 6.46427582 122.0122757 5.5005188 122.00695801 C4.639702 122.00688248 3.77888519 122.00680695 2.89198303 122.00672913 C1.74947838 122.00339821 1.74947838 122.00339821 0.58389282 122 C-1.19691403 121.92934497 -1.19691403 121.92934497 -2.16880798 123.12025452 Z " fill="#EDECEC" transform="translate(76.16880798339844,15.879745483398438)"/>
<path d="M0 0 C1.14892731 -0.0033284 2.29785461 -0.0066568 3.4815979 -0.01008606 C5.90732423 -0.01513918 8.33305748 -0.01749488 10.75878906 -0.01733398 C14.45649746 -0.01951939 18.15390687 -0.03768965 21.8515625 -0.05664062 C24.21354065 -0.05957515 26.57552021 -0.06155955 28.9375 -0.0625 C30.58629654 -0.07327827 30.58629654 -0.07327827 32.2684021 -0.08427429 C48.26237193 -0.0370107 61.25444591 6.25648964 72.47265625 17.3984375 C82.68374222 28.15573312 89.17969546 40.11080713 90.1015625 55.16796875 C90.18083984 56.38033203 90.18083984 56.38033203 90.26171875 57.6171875 C90.8222297 74.3106657 84.4744535 87.26802892 76.1015625 101.16796875 C76.89820313 102.40160156 76.89820313 102.40160156 77.7109375 103.66015625 C87.02267272 118.28156176 90.50739103 131.76245078 90.85668945 149.12036133 C90.89500918 150.52971213 90.95664131 151.93861724 91.04125977 153.34594727 C91.40673407 159.51323676 91.70913475 165.01052516 87.86108398 170.17480469 C85.06366341 172.74430155 82.19864146 174.97269321 79.1015625 177.16796875 C77.73896407 178.28694695 76.38237248 179.4133301 75.03515625 180.55078125 C73.87317546 181.46914148 72.70793795 182.38340014 71.5390625 183.29296875 C70.93771484 183.7725 70.33636719 184.25203125 69.71679688 184.74609375 C65.35146205 188.16796875 65.35146205 188.16796875 63.1015625 188.16796875 C63.1015625 188.82796875 63.1015625 189.48796875 63.1015625 190.16796875 C62.4415625 190.16796875 61.7815625 190.16796875 61.1015625 190.16796875 C61.1015625 190.82796875 61.1015625 191.48796875 61.1015625 192.16796875 C58.6265625 193.15796875 58.6265625 193.15796875 56.1015625 194.16796875 C56.1015625 194.82796875 56.1015625 195.48796875 56.1015625 196.16796875 C54.17683068 197.79101846 52.24874835 199.29998189 50.2265625 200.79296875 C49.0371236 201.68795639 47.8483294 202.58380141 46.66015625 203.48046875 C46.06315918 203.9290625 45.46616211 204.37765625 44.85107422 204.83984375 C40.86773005 207.86376117 36.99098467 211.02482397 33.1015625 214.16796875 C32.4415625 213.83796875 31.7815625 213.50796875 31.1015625 213.16796875 C31.09609406 211.70337723 31.09609406 211.70337723 31.09051514 210.209198 C31.05354167 200.99856241 30.99574334 191.78826044 30.91765976 182.57787895 C30.87818432 177.84292101 30.84599618 173.10814907 30.83056641 168.37304688 C30.81540023 163.80165513 30.7809555 159.23077471 30.73325348 154.65961075 C30.71843926 152.91739476 30.71052146 151.17510576 30.70967865 149.432827 C30.7073073 146.9883577 30.68021611 144.54529956 30.64746094 142.10107422 C30.6524913 141.38393753 30.65752167 140.66680084 30.66270447 139.92793274 C30.5588103 134.90254583 29.21123036 132.06657712 26.1015625 128.16796875 C24.36505017 126.51550328 24.36505017 126.51550328 22.5390625 125.35546875 C21.96027344 124.95714844 21.38148438 124.55882812 20.78515625 124.1484375 C18.95417013 123.00541752 18.95417013 123.00541752 16.1015625 122.16796875 C16.1015625 121.50796875 16.1015625 120.84796875 16.1015625 120.16796875 C-39.9984375 120.16796875 -96.0984375 120.16796875 -153.8984375 120.16796875 C-153.8984375 119.50796875 -153.8984375 118.84796875 -153.8984375 118.16796875 C-152.9084375 118.16796875 -151.9184375 118.16796875 -150.8984375 118.16796875 C-150.8984375 117.50796875 -150.8984375 116.84796875 -150.8984375 116.16796875 C-150.29128906 115.91144531 -149.68414062 115.65492188 -149.05859375 115.390625 C-146.64740211 114.02588181 -145.8218526 112.91119907 -144.3359375 110.60546875 C-140.38223731 105.09817353 -135.20861624 101.30288526 -129.8984375 97.16796875 C-127.2298372 94.97993495 -124.56197779 92.79100262 -121.89453125 90.6015625 C-119.8984375 89.16796875 -119.8984375 89.16796875 -117.8984375 89.16796875 C-117.8984375 88.50796875 -117.8984375 87.84796875 -117.8984375 87.16796875 C-113.16448003 82.83977906 -108.99722629 80.91447576 -102.58964539 80.92745972 C-101.01430275 80.92333572 -101.01430275 80.92333572 -99.40713501 80.91912842 C-98.26561981 80.92631897 -97.12410461 80.93350952 -95.94799805 80.94091797 C-94.13273872 80.94047989 -94.13273872 80.94047989 -92.2808075 80.94003296 C-88.97119337 80.94118588 -85.66183009 80.95120224 -82.35226035 80.96518087 C-78.89026872 80.97770065 -75.42827359 80.97885972 -71.96626282 80.98123169 C-65.41444327 80.9874428 -58.86269062 81.0038486 -52.31090051 81.02393067 C-44.85023461 81.04630118 -37.38956548 81.05728599 -29.92887437 81.06732154 C-14.58535564 81.08821517 0.75809217 81.12378778 16.1015625 81.16796875 C16.1015625 84.79796875 16.1015625 88.42796875 16.1015625 92.16796875 C19.5665625 91.67296875 19.5665625 91.67296875 23.1015625 91.16796875 C23.1840625 90.56984375 23.2665625 89.97171875 23.3515625 89.35546875 C24.35398806 86.43172753 25.46304576 85.76496572 28.1015625 84.16796875 C30.43489583 83.16796875 32.76822917 82.16796875 35.1015625 81.16796875 C37.99638345 79.4793232 38.9621147 78.44686434 40.4765625 75.41796875 C43.69828151 68.97453073 48.59573638 64.66016998 54.1015625 60.16796875 C53.67447998 59.8212915 53.24739746 59.47461426 52.80737305 59.11743164 C47.90368284 55.13643284 43.00181524 51.153198 38.1015625 47.16796875 C37.53244141 46.70519531 36.96332031 46.24242187 36.37695312 45.765625 C22.00462372 34.07102997 22.00462372 34.07102997 17.1015625 29.16796875 C16.7715625 32.79796875 16.4415625 36.42796875 16.1015625 40.16796875 C-9.3084375 40.16796875 -34.7184375 40.16796875 -60.8984375 40.16796875 C-57.51859406 34.53489634 -57.51859406 34.53489634 -54.61328125 31.8359375 C-54.00033203 31.26552734 -53.38738281 30.69511719 -52.75585938 30.10742188 C-52.12228516 29.52927734 -51.48871094 28.95113281 -50.8359375 28.35546875 C-50.19849609 27.75798828 -49.56105469 27.16050781 -48.90429688 26.54492188 C-44.15717857 22.16796875 -44.15717857 22.16796875 -41.8984375 22.16796875 C-41.8984375 21.50796875 -41.8984375 20.84796875 -41.8984375 20.16796875 C-41.2384375 20.16796875 -40.5784375 20.16796875 -39.8984375 20.16796875 C-39.8984375 19.50796875 -39.8984375 18.84796875 -39.8984375 18.16796875 C-38.23261814 16.57800106 -36.48902362 15.06880779 -34.7109375 13.60546875 C-33.74800781 12.79980469 -32.78507812 11.99414062 -31.79296875 11.1640625 C-28.98630114 9.22856028 -27.24411074 8.5166038 -23.8984375 8.16796875 C-23.8984375 7.50796875 -23.8984375 6.84796875 -23.8984375 6.16796875 C-22.9703125 5.76578125 -22.9703125 5.76578125 -22.0234375 5.35546875 C-19.5989142 4.21240027 -19.5989142 4.21240027 -17.8984375 1.16796875 C-12.17172389 -0.46009941 -5.90952608 0.00596083 0 0 Z " fill="#EFEEEE" transform="translate(228.8984375,56.83203125)"/>
<path d="M0 0 C0.99 0.495 0.99 0.495 2 1 C1.071875 2.11375 1.071875 2.11375 0.125 3.25 C-1.99119395 5.77147691 -1.99119395 5.77147691 -2.9375 8.0625 C-5.71813232 13.13306482 -10.87310711 14.94046385 -16.01171875 16.875 C-18.44519879 18.2519003 -18.78221252 19.55448391 -20 22 C-23.625 22.75 -23.625 22.75 -27 23 C-27 19.37 -27 15.74 -27 12 C-43.11582453 12.10739022 -59.23160098 12.219936 -75.34734058 12.33933926 C-82.82993316 12.39464838 -90.3125305 12.4481266 -97.79516602 12.49731445 C-104.31602288 12.54018458 -110.83684497 12.58646973 -117.35764807 12.63687855 C-120.81125936 12.66345669 -124.26486386 12.68830919 -127.7185154 12.70907402 C-131.57126082 12.73230229 -135.42392439 12.76315393 -139.27661133 12.79467773 C-140.42531708 12.8004332 -141.57402283 12.80618866 -142.75753784 12.81211853 C-143.80501694 12.82190735 -144.85249603 12.83169617 -145.93171692 12.84178162 C-147.29919681 12.85146044 -147.29919681 12.85146044 -148.69430256 12.8613348 C-151.16087427 12.90989904 -151.16087427 12.90989904 -154 14 C-154 13.34 -154 12.68 -154 12 C-154.66902344 12.0721875 -155.33804688 12.144375 -156.02734375 12.21875 C-169.72529729 13.54257907 -183.30706827 13.21522057 -197 12 C-197 11.67 -197 11.34 -197 11 C-196.41784225 10.98969254 -195.83568451 10.97938507 -195.23588562 10.96876526 C-189.18521866 10.86071434 -183.13470105 10.74611508 -177.08422852 10.62768555 C-174.82514567 10.5843322 -172.56602997 10.54265742 -170.30688477 10.50268555 C-167.06256196 10.44499287 -163.8184046 10.38129531 -160.57421875 10.31640625 C-159.05534309 10.29133751 -159.05534309 10.29133751 -157.50578308 10.26576233 C-156.56503433 10.24581711 -155.62428558 10.22587189 -154.6550293 10.20532227 C-153.41259712 10.18200584 -153.41259712 10.18200584 -152.14506531 10.15821838 C-149.81446753 10.07459277 -149.81446753 10.07459277 -147 9 C-145.40987188 8.91979237 -143.81647686 8.89794804 -142.22438049 8.91098022 C-140.75018143 8.91937172 -140.75018143 8.91937172 -139.24620056 8.92793274 C-138.16923416 8.93930771 -137.09226776 8.95068268 -135.98266602 8.96240234 C-134.84748535 8.97040359 -133.71230469 8.97840485 -132.54272461 8.98664856 C-128.77972464 9.01459222 -125.01683823 9.05004807 -121.25390625 9.0859375 C-118.6446101 9.10770048 -116.03531133 9.12915028 -113.42601013 9.15029907 C-107.95250824 9.19548849 -102.47905722 9.24496322 -97.00561523 9.296875 C-90.6794425 9.35681331 -84.35324018 9.40960662 -78.02697426 9.45864332 C-71.94060354 9.5060185 -65.85429318 9.55884067 -59.7679882 9.61400223 C-57.17838685 9.63693145 -54.58877249 9.65843708 -51.99914742 9.67850876 C-48.38161316 9.7072613 -44.76419063 9.74219947 -41.14672852 9.77880859 C-39.53431526 9.78979836 -39.53431526 9.78979836 -37.889328 9.80101013 C-36.9037088 9.81224411 -35.9180896 9.82347809 -34.90260315 9.83505249 C-34.04738854 9.84280386 -33.19217394 9.85055523 -32.31104374 9.85854149 C-30 10 -30 10 -26 11 C-25.67 14.3 -25.34 17.6 -25 21 C-24.10539063 20.2265625 -23.21078125 19.453125 -22.2890625 18.65625 C-15.8778963 13.1285857 -9.44295955 7.66549668 -2.79296875 2.42578125 C-1.08548577 1.12326662 -1.08548577 1.12326662 0 0 Z " fill="#706F6F" transform="translate(272,126)"/>
<path d="M0 0 C0.33 0 0.66 0 1 0 C1.87890625 6.15234375 1.87890625 6.15234375 2 8 C1.67 8.33 1.34 8.66 1 9 C0.896917 10.86826304 0.86478056 12.74045957 0.85955811 14.61155701 C0.85384796 15.83009369 0.84813782 17.04863037 0.84225464 18.30409241 C0.84100916 19.6668395 0.83988409 21.0295867 0.83886719 22.39233398 C0.83424139 23.81779103 0.82921705 25.24324683 0.82382202 26.66870117 C0.81067402 30.55088335 0.80424854 34.43304823 0.79981136 38.3152492 C0.79688482 40.73796559 0.79278085 43.1606772 0.78830719 45.58339119 C0.77462665 53.15567168 0.76496242 60.72794131 0.7611053 68.3002333 C0.75662141 77.0560797 0.73906059 85.81177022 0.7101047 94.5675692 C0.68852627 101.32595437 0.6784031 108.08429557 0.67706418 114.84271485 C0.67601349 118.88376951 0.67004991 122.92467778 0.65224457 126.96569633 C0.63582971 130.76516539 0.63357598 134.56437696 0.64238358 138.36386871 C0.64315748 139.76112365 0.63876504 141.15839206 0.62892532 142.55561256 C0.61631319 144.45752005 0.62383489 146.35952982 0.63250732 148.26145935 C0.63104076 149.32759681 0.6295742 150.39373426 0.6280632 151.49217892 C0.75080235 152.31975987 0.87354149 153.14734083 1 154 C3.61941217 155.74627478 5.03824877 156.38722388 8 157 C6.625 159 6.625 159 5 161 C4.34 161 3.68 161 3 161 C3 161.66 3 162.32 3 163 C1.35 163.33 -0.3 163.66 -2 164 C-2.0467983 144.24126602 -2.08202715 124.48254335 -2.10362434 104.72376537 C-2.1139205 95.54865347 -2.12794898 86.37357608 -2.15087891 77.19848633 C-2.17086374 69.19799583 -2.1837285 61.19753035 -2.18817699 53.19701558 C-2.19077576 48.96398116 -2.19684917 44.73101824 -2.21146011 40.49800682 C-2.22512464 36.50651326 -2.22920487 32.51512008 -2.22621536 28.52360535 C-2.22676158 27.06563075 -2.23068586 25.60765249 -2.23841095 24.14969826 C-2.28011054 15.86727402 -1.85895939 8.08724643 0 0 Z " fill="#A7A3A2" transform="translate(17,60)"/>
<path d="M0 0 C0 0.33 0 0.66 0 1 C-0.60055206 1.01030746 -1.20110413 1.02061493 -1.81985474 1.03123474 C-8.08183045 1.13958507 -14.34367054 1.25415903 -20.60546875 1.37231445 C-22.94105181 1.41557199 -25.27666462 1.45725342 -27.61230469 1.49731445 C-30.97339842 1.55523969 -34.33434366 1.61886986 -37.6953125 1.68359375 C-39.25658371 1.70866249 -39.25658371 1.70866249 -40.84939575 1.73423767 C-47.98514305 1.82515769 -47.98514305 1.82515769 -55 3 C-56.68538601 4.99665314 -56.68538601 4.99665314 -58 7 C-58.99 7 -59.98 7 -61 7 C-61 7.66 -61 8.32 -61 9 C-61.99 8.67 -62.98 8.34 -64 8 C-63.34 8 -62.68 8 -62 8 C-62 7.34 -62 6.68 -62 6 C-61.34 6 -60.68 6 -60 6 C-60 5.34 -60 4.68 -60 4 C-59.34 3.67 -58.68 3.34 -58 3 C-97.27 2.67 -136.54 2.34 -177 2 C-177 1.67 -177 1.34 -177 1 C-176.1271788 0.98969254 -175.2543576 0.97938507 -174.35508728 0.96876526 C-164.12085116 0.84741985 -153.88666153 0.72250593 -143.65248871 0.59593964 C-140.94111987 0.56254458 -138.22974628 0.52955942 -135.51837158 0.49664307 C-110.34887785 0.20470959 -110.34887785 0.20470959 -85.18359375 -0.32421875 C-83.70847321 -0.36304169 -83.70847321 -0.36304169 -82.20355225 -0.40264893 C-80.32704163 -0.45258861 -78.45053588 -0.50271132 -76.57403564 -0.55303955 C-51.03564144 -1.23393249 -25.53406735 -0.68835685 0 0 Z " fill="#898686" transform="translate(266,56)"/>
<path d="M0 0 C0.66 0.33 1.32 0.66 2 1 C1.67 12.55 1.34 24.1 1 36 C2.65 35.34 4.3 34.68 6 34 C6 33.34 6 32.68 6 32 C7.96147874 30.61061923 9.96166576 29.2739589 12 28 C10.8141763 31.37503669 9.72426311 33.64722731 7 36 C6.34 35.67 5.68 35.34 5 35 C5 35.66 5 36.32 5 37 C4.01 37 3.02 37 2 37 C2 37.66 2 38.32 2 39 C58.1 39 114.2 39 172 39 C172 39.33 172 39.66 172 40 C114.91 40.33 57.82 40.66 -1 41 C-0.67 27.47 -0.34 13.94 0 0 Z " fill="#CCC7C4" transform="translate(73,138)"/>
<path d="M0 0 C0.66 0 1.32 0 2 0 C2.00586624 0.84524734 2.01173248 1.69049469 2.01777649 2.56135559 C2.07564942 10.52204265 2.14769474 18.48244752 2.23571491 26.4428606 C2.28046719 30.53553618 2.31971232 34.6281111 2.34643555 38.72094727 C2.37242049 42.66983715 2.412788 46.61834066 2.46318626 50.56699181 C2.47988771 52.07444139 2.49138156 53.58195786 2.49761391 55.08948708 C2.5072199 57.19915011 2.53523419 59.30781739 2.56762695 61.41723633 C2.57873001 62.61858719 2.58983307 63.81993805 2.60127258 65.05769348 C2.75309576 67.97284667 2.75309576 67.97284667 4.33952332 69.78642273 C5.8630087 70.89987843 7.42991618 71.95327745 9 73 C6.69 74.65 4.38 76.3 2 78 C1.34 77.67 0.68 77.34 0 77 C0 51.59 0 26.18 0 0 Z " fill="#8D8B8A" transform="translate(260,193)"/>
<path d="M0 0 C0.66 0.33 1.32 0.66 2 1 C1.67 12.55 1.34 24.1 1 36 C2.65 35.34 4.3 34.68 6 34 C6 33.34 6 32.68 6 32 C7.96147874 30.61061923 9.96166576 29.2739589 12 28 C10.8141763 31.37503669 9.72426311 33.64722731 7 36 C6.34 35.67 5.68 35.34 5 35 C5 35.66 5 36.32 5 37 C4.01 37 3.02 37 2 37 C2 37.66 2 38.32 2 39 C13.22 39 24.44 39 36 39 C36 39.33 36 39.66 36 40 C23.79 40.33 11.58 40.66 -1 41 C-0.67 27.47 -0.34 13.94 0 0 Z " fill="#878478" transform="translate(73,138)"/>
<path d="M0 0 C0.66 0.33 1.32 0.66 2 1 C1.38125 1.7425 0.7625 2.485 0.125 3.25 C-1.99119395 5.77147691 -1.99119395 5.77147691 -2.9375 8.0625 C-5.71813232 13.13306482 -10.87310711 14.94046385 -16.01171875 16.875 C-18.44519879 18.2519003 -18.78221252 19.55448391 -20 22 C-23.625 22.75 -23.625 22.75 -27 23 C-27 19.04 -27 15.08 -27 11 C-26.67 11 -26.34 11 -26 11 C-25.67 14.3 -25.34 17.6 -25 21 C-24.10539063 20.2265625 -23.21078125 19.453125 -22.2890625 18.65625 C-15.8778963 13.1285857 -9.44295955 7.66549668 -2.79296875 2.42578125 C-1.08548577 1.12326662 -1.08548577 1.12326662 0 0 Z " fill="#C6C3C1" transform="translate(272,126)"/>
<path d="M0 0 C0.33 0 0.66 0 1 0 C1.87890625 6.15234375 1.87890625 6.15234375 2 8 C1.67 8.33 1.34 8.66 1 9 C0.8768483 10.74838835 0.82212189 12.50164504 0.79467773 14.25415039 C0.77473251 15.37523697 0.75478729 16.49632355 0.73423767 17.65138245 C0.71752518 18.8711528 0.70081268 20.09092316 0.68359375 21.34765625 C0.66281265 22.58921982 0.64203156 23.83078339 0.62062073 25.10997009 C0.56616391 28.41599123 0.51595795 31.72202245 0.46777344 35.02813721 C0.41760144 38.39967491 0.36189299 41.77112053 0.30664062 45.14257812 C0.19929962 51.76164551 0.09755802 58.3807816 0 65 C-0.33 65 -0.66 65 -1 65 C-1.0231793 57.11567432 -1.0409436 49.2313629 -1.05181217 41.34701157 C-1.05702876 37.68591864 -1.06410421 34.02484904 -1.07543945 30.36376953 C-1.0863118 26.83004782 -1.09228607 23.29634854 -1.09487724 19.76261139 C-1.09762169 17.75960042 -1.10542683 15.75659846 -1.11329651 13.75360107 C-1.11337204 12.53263733 -1.11344757 11.31167358 -1.11352539 10.05371094 C-1.115746 8.97893494 -1.11796661 7.90415894 -1.12025452 6.79681396 C-1.01524382 4.35453253 -0.70765164 2.32815483 0 0 Z " fill="#E5E1E0" transform="translate(17,60)"/>
<path d="M0 0 C15.18 0 30.36 0 46 0 C45.67 0.99 45.34 1.98 45 3 C44.34 3 43.68 3 43 3 C43 2.34 43 1.68 43 1 C42.33097656 1.0721875 41.66195312 1.144375 40.97265625 1.21875 C27.27470271 2.54257907 13.69293173 2.21522057 0 1 C0 0.67 0 0.34 0 0 Z " fill="#979291" transform="translate(75,137)"/>
<path d="M0 0 C0.99 0.66 1.98 1.32 3 2 C5.11280345 2.63292383 5.11280345 2.63292383 7 3 C5.625 5 5.625 5 4 7 C3.34 7 2.68 7 2 7 C2 7.66 2 8.32 2 9 C0.68 9 -0.64 9 -2 9 C-1.125 2.25 -1.125 2.25 0 0 Z " fill="#D4D0CF" transform="translate(18,214)"/>
<path d="M0 0 C9.57 0.33 19.14 0.66 29 1 C28.67 2.32 28.34 3.64 28 5 C27.01 5.33 26.02 5.66 25 6 C25 4.68 25 3.36 25 2 C16.75 2 8.5 2 0 2 C0 1.34 0 0.68 0 0 Z " fill="#CDC7C6" transform="translate(137,96)"/>
<path d="M0 0 C0.33 0 0.66 0 1 0 C1.33 3.3 1.66 6.6 2 10 C2.55429688 9.4946875 3.10859375 8.989375 3.6796875 8.46875 C4.40414062 7.8190625 5.12859375 7.169375 5.875 6.5 C6.59429687 5.8503125 7.31359375 5.200625 8.0546875 4.53125 C10 3 10 3 12 3 C12 3.66 12 4.32 12 5 C11.360625 5.474375 10.72125 5.94875 10.0625 6.4375 C7.71627037 7.9091365 7.71627037 7.9091365 7 11 C4.69 11.33 2.38 11.66 0 12 C0 8.04 0 4.08 0 0 Z " fill="#948F8E" transform="translate(245,137)"/>
<path d="M0 0 C0.33 0.66 0.66 1.32 1 2 C-0.98 4.97 -0.98 4.97 -3 8 C-3.99 7.67 -4.98 7.34 -6 7 C-6 7.66 -6 8.32 -6 9 C-6.99 9.33 -7.98 9.66 -9 10 C-10.66710346 11.49985609 -10.66710346 11.49985609 -12 13 C-11.67 11.02 -11.34 9.04 -11 7 C-9.02 6.67 -7.04 6.34 -5 6 C-5 5.34 -5 4.68 -5 4 C-3.37373596 2.61767557 -1.7074998 1.28062485 0 0 Z " fill="#9D9797" transform="translate(84,166)"/>
<path d="M0 0 C0.33 0 0.66 0 1 0 C1.87890625 6.15234375 1.87890625 6.15234375 2 8 C1.67 8.33 1.34 8.66 1 9 C0.76321284 11.69235776 0.57801975 14.36498156 0.4375 17.0625 C0.39431641 17.82111328 0.35113281 18.57972656 0.30664062 19.36132812 C0.20026367 21.24065438 0.09960066 23.12030244 0 25 C-0.33 25 -0.66 25 -1 25 C-1.02908357 21.58335127 -1.04682691 18.1667345 -1.0625 14.75 C-1.07087891 13.78191406 -1.07925781 12.81382813 -1.08789062 11.81640625 C-1.09111328 10.88183594 -1.09433594 9.94726562 -1.09765625 8.984375 C-1.10289307 8.12553711 -1.10812988 7.26669922 -1.11352539 6.38183594 C-1.00539986 4.11329256 -0.63582423 2.17368285 0 0 Z " fill="#C0BCBC" transform="translate(17,60)"/>
<path d="M0 0 C0 0.99 0 1.98 0 3 C-4.22222222 6 -4.22222222 6 -7 6 C-7.33 7.65 -7.66 9.3 -8 11 C-8.99 10.34 -9.98 9.68 -11 9 C-10.67 8.34 -10.34 7.68 -10 7 C-9.34 7 -8.68 7 -8 7 C-8 6.34 -8 5.68 -8 5 C-7.34 5 -6.68 5 -6 5 C-6 4.34 -6 3.68 -6 3 C-2.53846154 0 -2.53846154 0 0 0 Z " fill="#A8A5A5" transform="translate(42,27)"/>
<path d="M0 0 C2.83374881 3.20336822 3.5205537 5.78087253 4 10 C3.01 10.33 2.02 10.66 1 11 C0.01 9.02 -0.98 7.04 -2 5 C-1.34 5 -0.68 5 0 5 C0 3.35 0 1.7 0 0 Z " fill="#B6B2B0" transform="translate(312,90)"/>
<path d="M0 0 C3.465 1.98 3.465 1.98 7 4 C5.71034824 5.37562854 4.37310707 6.70766393 3 8 C2.34 8 1.68 8 1 8 C0.67 5.36 0.34 2.72 0 0 Z " fill="#D0C6C7" transform="translate(262,261)"/>
<path d="M0 0 C0.98401634 3.06138418 1.26948477 5.00764305 0 8 C-2.5625 10.75 -2.5625 10.75 -5 13 C-4.54554036 11.58208592 -4.08625056 10.16571954 -3.625 8.75 C-3.24214844 7.56664062 -3.24214844 7.56664062 -2.8515625 6.359375 C-2.04826333 4.13372042 -1.10288338 2.09068328 0 0 Z " fill="#A2A09F" transform="translate(23,46)"/>
<path d="M0 0 C0.99 0.33 1.98 0.66 3 1 C1.1875 3.5 1.1875 3.5 -1 6 C-1.99 6 -2.98 6 -4 6 C-4 6.66 -4 7.32 -4 8 C-4.99 7.67 -5.98 7.34 -7 7 C-6.34 7 -5.68 7 -5 7 C-5 6.34 -5 5.68 -5 5 C-4.34 5 -3.68 5 -3 5 C-3 4.34 -3 3.68 -3 3 C-1.5 1.375 -1.5 1.375 0 0 Z " fill="#A69F9E" transform="translate(209,57)"/>
<path d="M0 0 C0.53625 0.226875 1.0725 0.45375 1.625 0.6875 C-1.345 3.1625 -1.345 3.1625 -4.375 5.6875 C-4.375 5.0275 -4.375 4.3675 -4.375 3.6875 C-5.695 3.3575 -7.015 3.0275 -8.375 2.6875 C-2.95961538 -0.38942308 -2.95961538 -0.38942308 0 0 Z " fill="#AEABAA" transform="translate(57.375,19.3125)"/>
<path d="M0 0 C1.32 0.66 2.64 1.32 4 2 C2.02 2.99 2.02 2.99 0 4 C0 4.66 0 5.32 0 6 C-0.99 5.67 -1.98 5.34 -3 5 C-1.125 1.125 -1.125 1.125 0 0 Z " fill="#C5C0BD" transform="translate(249,23)"/>
<path d="M0 0 C0.99 0.99 1.98 1.98 3 3 C0.69 4.65 -1.62 6.3 -4 8 C-3.67 6.68 -3.34 5.36 -3 4 C-2.01 3.67 -1.02 3.34 0 3 C0 2.01 0 1.02 0 0 Z " fill="#ABA5A4" transform="translate(64,181)"/>
<path d="M0 0 C2.97 0.495 2.97 0.495 6 1 C4.37660195 2.70884005 2.70680947 4.37446717 1 6 C0.34 6 -0.32 6 -1 6 C-1 5.01 -1 4.02 -1 3 C-0.34 2.67 0.32 2.34 1 2 C0.67 1.34 0.34 0.68 0 0 Z " fill="#B2AEAD" transform="translate(32,206)"/>
<path d="M0 0 C0.99 0.66 1.98 1.32 3 2 C2.34 2 1.68 2 1 2 C1 2.66 1 3.32 1 4 C0.34 4 -0.32 4 -1 4 C-1 4.66 -1 5.32 -1 6 C-1.66 6 -2.32 6 -3 6 C-3.33 4.68 -3.66 3.36 -4 2 C-2.68 1.34 -1.36 0.68 0 0 Z " fill="#B8B3B2" transform="translate(155,105)"/>
<path d="M0 0 C0.33 0.66 0.66 1.32 1 2 C-1.35380297 5.92300495 -3.64464931 6.83857315 -8 8 C-5.33333333 5.33333333 -2.66666667 2.66666667 0 0 Z " fill="#958E8E" transform="translate(183,81)"/>
<path d="M0 0 C0.99 0.66 1.98 1.32 3 2 C1.02 2.99 1.02 2.99 -1 4 C-1 4.66 -1 5.32 -1 6 C-1.66 6 -2.32 6 -3 6 C-3 4.68 -3 3.36 -3 2 C-2.01 2 -1.02 2 0 2 C0 1.34 0 0.68 0 0 Z " fill="#ABA8A7" transform="translate(146,113)"/>
</svg>
